<!-- Original pixel furniture atlas: SVG symbols for React and view fragments for CSS ornaments. -->
<svg xmlns="http://www.w3.org/2000/svg" width="32" height="32" viewBox="0 0 32 32" shape-rendering="crispEdges">
  <defs>
    <g id="habits" stroke="#735d65" stroke-width="1">
      <path fill="#d7aa6c" d="M9 22h15v7H9z"/><path fill="#b0d9ce" d="M15 10h3v13h-3zM6 6h8v3h3v7h-6v-3H6zM19 3h8v8h-4v4h-6V7h2z"/>
      <path fill="#fff9df" d="M11 24h11v2H11z"/>
    </g>
    <g id="home" stroke="#735d65" stroke-width="1" stroke-linejoin="miter">
      <path fill="#fff8df" d="M5 14h22v15H5z"/><path fill="#eeafcf" d="M2 14v-3h4V8h4V5h12v3h4v3h4v3z"/>
      <path fill="#fff0fa" d="M8 10h16v2H8z" stroke="none"/><path fill="#b6a2df" d="M13 18h7v11h-7z"/>
      <path fill="#a9e3de" d="M7 17h4v6H7zM22 17h3v6h-3z"/><path stroke="#fffdf2" d="M9 17v6M7 20h4M23 17v6"/>
      <path fill="#7caf79" d="M3 26h8v4H3zM22 26h7v4h-7z"/><path fill="#eeb2c7" d="M4 24h3v3H4zM25 24h3v3h-3z" stroke="none"/>
    </g>
    <g id="calendar" stroke="#735d65" stroke-width="1">
      <path fill="#d7aa6c" d="M6 3h20v27H6z"/><path fill="#fff9df" d="M8 7h16v20H8z"/><path fill="#efa6c3" d="M8 7h16v5H8z"/>
      <path stroke="#8a7189" stroke-width="2" d="M11 2v7M21 2v7"/><path fill="#b0d9ce" d="M10 15h3v3h-3zM15 15h3v3h-3zM20 15h2v3h-2zM10 21h3v3h-3zM15 21h3v3h-3z" stroke="none"/>
      <path fill="#b19ad9" d="M21 20v2h-2v3h2v2h3v-2h2v-3h-2v-2z" stroke="none"/>
    </g>
    <g id="projects" stroke="#735d65" stroke-width="1">
      <path fill="#d7aa6c" d="M4 3h24v26H4zM6 29h3v2H6zM23 29h3v2h-3z"/><path fill="#fff0cb" d="M7 6h18v9H7zM7 18h18v8H7z"/>
      <path fill="#efb8d0" d="M8 7h4v8H8z"/><path fill="#b3a1da" d="M13 6h4v9h-4z"/><path fill="#99d8dc" d="M19 8h4v7h-4z"/>
      <path fill="#a7cfa0" d="M8 21h8v5H8z"/><path fill="#f6da82" d="M19 19h5v7h-5z"/><path stroke="#fff8df" d="M9 10h2M14 9h2M20 11h2"/>
    </g>
    <g id="insights" stroke="#735d65" stroke-width="1">
      <path fill="#ac96d2" d="M11 8h3v3h-3zM8 11h3v3H8zM5 14h3v3H5zM18 3h9v3h3v7h-9v-3h-3z"/><path fill="#9ce1e6" d="M14 6h7v4h3v7h-7v-4h-3z"/>
      <path fill="#eed68a" d="M10 13h7v4h-7z"/><path fill="none" stroke-width="2" d="M16 17v9M16 20l-8 10M16 20l8 10"/><path fill="#fff6c7" stroke="none" d="M4 3h2v2h2v2H6v2H4V7H2V5h2z"/>
    </g>
    <g id="rhythm" stroke="#735d65" stroke-width="1">
      <path fill="#f1cbe0" d="M4 8h24v20H4z"/><path fill="#ad97d5" d="M7 5h18v3H7zM7 28h3v2H7zM22 28h3v2h-3z"/>
      <circle cx="15" cy="18" r="8" fill="#b7a8e0"/><circle cx="15" cy="18" r="4" fill="#fff0cf"/><path fill="#8fd5d7" d="M24 11h2v11h-5v-3h3z"/><path stroke="#fff5fa" d="M9 16l3-3M8 19l2-2"/>
    </g>
    <g id="settings" stroke="#735d65" stroke-width="1">
      <path fill="#f8d989" d="M11 2h10v2h3v3h2v11h-2v3H8v-3H6V7h2V4h3z"/><path fill="#b5e6e5" d="M11 5h10v3h2v9h-2v2H11v-2H9V8h2z"/>
      <path stroke="#fffbea" stroke-width="2" d="M12 13l5-5M16 16l4-4"/><path fill="#edb4cc" d="M4 22h24v4H4zM6 26h3v5H6zM23 26h3v5h-3z"/><path fill="#fff6d4" d="M14 24h5v4h-5z"/>
    </g>
    <g id="flower" stroke="#735d65" stroke-width="1">
      <path fill="#97bd86" d="M15 15h2v8h-2zM8 16h7v4h-4v-2H8zM17 13h6v3h-6z"/><path fill="#c4a5e2" d="M10 4h5V2h5v3h4v5h-3v5h-5v-2h-6v-3H7V6h3z"/>
      <path fill="#fff1df" d="M11 6h3v3h-3zM17 5h3v3h-3zM17 10h3v3h-3z" stroke="none"/><path fill="#97dce1" d="M9 22h14v3h-2v5H11v-5H9z"/><path fill="#fff6df" d="M12 24h3v4h-3z" stroke="none"/>
    </g>
    <g id="cat" stroke="#735d65" stroke-width="1">
      <path fill="#fff9ed" d="M8 6h5v5h7V6h5v6h2v11h-3v5H9v-3H4v-7h4z"/><path fill="#e9cde3" d="M10 8h2v4h-2zM21 8h2v4h-2z" stroke="none"/>
      <path fill="#735d65" d="M11 16h2v3h-2zM21 16h2v3h-2zM16 20h3v1h-3z" stroke="none"/><path fill="#e9a9bf" d="M9 20h3v2H9zM22 20h3v2h-3z" stroke="none"/><path fill="#99dce7" d="M10 24h14v2H10z"/>
    </g>
    <g id="star" stroke="#b8985b" stroke-width="1"><path fill="#ffeb99" d="M14 3h4v5h3v4h8v6h-5v4h2v7h-6v-3h-8v3H6v-7h2v-4H3v-6h8V8h3z"/><path fill="#fff7d4" d="M14 10h3v7h-3zM10 15h3v3h-3z" stroke="none"/></g>
  </defs>
  <view id="view-home" viewBox="0 0 32 32"/><use href="#home"/>
  <view id="view-calendar" viewBox="32 0 32 32"/><use href="#calendar" x="32"/>
  <view id="view-projects" viewBox="64 0 32 32"/><use href="#projects" x="64"/>
  <view id="view-insights" viewBox="96 0 32 32"/><use href="#insights" x="96"/>
  <view id="view-rhythm" viewBox="128 0 32 32"/><use href="#rhythm" x="128"/>
  <view id="view-settings" viewBox="160 0 32 32"/><use href="#settings" x="160"/>
  <view id="view-flower" viewBox="192 0 32 32"/><use href="#flower" x="192"/>
  <view id="view-cat" viewBox="224 0 32 32"/><use href="#cat" x="224"/>
  <view id="view-star" viewBox="256 0 32 32"/><use href="#star" x="256"/>
</svg>
