<!-- Original nine-slice golden game-window frame, with four pixel scrollwork corners. -->
<svg xmlns="http://www.w3.org/2000/svg" width="96" height="96" viewBox="0 0 96 96" shape-rendering="crispEdges">
  <path fill="none" stroke="#74400d" stroke-width="10" d="M10 10H86V86H10z"/>
  <path fill="none" stroke="#ffc400" stroke-width="8" d="M10 10H86V86H10z"/>
  <path fill="none" stroke="#fff582" stroke-width="3" d="M8 8H88V88H8z"/>
  <path fill="none" stroke="#dc8a00" stroke-width="2" d="M14 14H82V82H14z"/>
  <defs><g id="corner" stroke="#8b4e06" stroke-width="1">
    <path fill="#ffc400" d="M2 3h13V0h7v10h-7v8H8v7H0V14h5V9H2z"/>
    <path fill="#fff586" d="M5 5h8v8H7v-3h3V8H5zM3 17h8v4H6v-2H3zM17 3h3v5h-3z"/>
  </g></defs>
  <use href="#corner"/><use href="#corner" transform="translate(96 0) scale(-1 1)"/>
  <use href="#corner" transform="translate(0 96) scale(1 -1)"/><use href="#corner" transform="translate(96 96) scale(-1 -1)"/>
</svg>
